# xmcd
#
# Track frame offsets:
# 150
# 18412
# 36300
# 48087
# 68925
# 92400
# 112655
# 127662
# 149952
# 166967
#
# Disc length: 2667 seconds
#
#
# Revision: 0
# Processed by: cddbd v1.5.1PL2 Copyright (c) Steve Scherf et al.
# Submitted via: FreeRIP 2.944 
#
DISCID=7d0a690a
DTITLE=Western Union - Freitagabendteufel
DYEAR=1900
DGENRE=Country
TTITLE0=Gottseidank ist endlich wieder Sommer
TTITLE1=Wir beide sind uns nie zuvor begegnet
TTITLE2=Ein Mann mit Bauch, der tuts doch auch
TTITLE3=Freitagabendteufel
TTITLE4=Was für ein Traum
TTITLE5=Dieselcowboys und Countrymusic
TTITLE6=Auf der Autobahn
TTITLE7=Wer glaubst du wer du bist
TTITLE8=Ich möcht so gerne mal nach Nashville
TTITLE9=Transitcowboy
EXTD=
EXTT0=
EXTT1=
EXTT2=
EXTT3=
EXTT4=
EXTT5=
EXTT6=
EXTT7=
EXTT8=
EXTT9=
PLAYORDER=
